<?xml version="1.0" encoding="UTF-8"?>
<svg id="Layer_1" xmlns="http://www.w3.org/2000/svg" version="1.1" viewBox="0 0 167.1 33.4">
  <!-- Generator: Adobe Illustrator 29.3.1, SVG Export Plug-In . SVG Version: 2.1.0 Build 151)  -->
  <defs>
    <style>
      .st0 {
        fill: #fff;
      }

      .st0, .st1 {
        fill-rule: evenodd;
      }

      .st2 {
        fill: #4a529f;
        font-family: Antapani-ExtraBold, Antapani;
        font-size: 24px;
        font-weight: 700;
      }

      .st3, .st1 {
        fill: #605dc8;
      }
    </style>
  </defs>
  <path class="st1" d="M6.2,33.3c-.9,0-1.6-.7-1.6-1.6v-7.7c0-4.5-.2-3.4,3-6.6,14.1-13.4,8.6-13.2,22,.6,2.4,2.7,2.4,1.4,2.4,5.8v7.8c0,.9-.7,1.6-1.6,1.6H6.2Z"/>
  <path class="st3" d="M2.5,18.7c-.3,0-.6,0-.9-.3-.8-.5-1-1.6-.5-2.4.4-.6,1.6-1.8,4.4-4.6l.9-.9c2.3-2.2,4.1-4,5.5-5.5C15.2,1.8,16.8.2,18.9.2c2.1,0,3.5,1.7,6.4,5,1.4,1.6,3.2,3.6,5.5,6.1,0,0,0,0,0,0,.3.4.8.9,1.3,1.5,1.7,1.9,2.6,2.8,2.8,3.2.6.8.4,1.8-.4,2.4-.8.6-1.8.4-2.4-.4-.2-.3-1.7-1.9-2.6-2.9-.5-.6-1-1.1-1.3-1.5-2.4-2.5-4.2-4.5-5.6-6.1-1.7-2-3.3-3.8-3.9-3.8h0c-.6,0-2.5,1.9-4.4,3.9-1.5,1.5-3.3,3.3-5.6,5.6l-.9.9c-1.2,1.1-3.6,3.5-3.9,4-.3.5-.9.8-1.4.8h0Z"/>
  <path class="st0" d="M22.1,33.2v-7.2c0-.6-.5-1.1-1.1-1.1h-5.8c-.6,0-1.1.5-1.1,1.1v7.2c0,0,0,.1,0,.2h8c0,0,0-.1,0-.2Z"/>
  <text class="st2" transform="translate(41.5 27.9)"><tspan x="0" y="0">ShelterBXL</tspan></text>
</svg>